<svg xmlns="http://www.w3.org/2000/svg" data-name="Calque 15" viewBox="0 0 14 16">
  <path d="M5.5 1h3c.28 0 .5.22.5.5v1H5v-1c0-.28.22-.5.5-.5M10 2.5v-1C10 .67 9.33 0 8.5 0h-3C4.67 0 4 .67 4 1.5v1H.5c-.28 0-.5.22-.5.5s.22.5.5.5h.54l.85 10.66C1.97 15.2 2.84 16 3.88 16h6.23c1.04 0 1.91-.8 1.99-1.84l.85-10.66h.54c.28 0 .5-.22.5-.5s-.22-.5-.5-.5h-3.5Zm1.96 1-.85 10.58c-.04.52-.48.92-1 .92H3.89c-.52 0-.96-.4-1-.92L2.04 3.5h9.92Zm-7.49 1c.28-.02.51.19.53.47l.5 8.5c.01.28-.2.51-.48.52-.27.01-.5-.19-.52-.46L4 5.03c-.02-.28.19-.51.47-.53Zm5.06 0c.28.02.49.25.47.53l-.5 8.5c-.01.28-.24.49-.52.48s-.49-.24-.48-.52v-.02l.5-8.5c.02-.28.25-.49.53-.47M7 4.5c.28 0 .5.22.5.5v8.5c0 .28-.22.5-.5.5s-.5-.22-.5-.5V5c0-.28.22-.5.5-.5"/>
</svg>
