<svg width="48" height="48" viewBox="0 0 48 48" fill="none" xmlns="http://www.w3.org/2000/svg">
<path d="M27.4001 24.4C28.8912 24.4 30.1001 23.1912 30.1001 21.7C30.1001 20.2088 28.8912 19 27.4001 19C25.9089 19 24.7001 20.2088 24.7001 21.7C24.7001 23.1912 25.9089 24.4 27.4001 24.4Z" fill="black"/>
<path d="M31.1401 26.52C29.9586 26.0121 28.6861 25.7502 27.4001 25.7502C26.1141 25.7502 24.8415 26.0121 23.6601 26.52C22.6601 26.95 22.0001 27.13 22.0001 28.23V29.13C21.9987 29.2228 22.0159 29.3149 22.0505 29.401C22.085 29.487 22.1364 29.5654 22.2015 29.6315C22.2667 29.6975 22.3443 29.75 22.4299 29.7858C22.5154 29.8216 22.6073 29.84 22.7001 29.84H32.1001C32.2866 29.8374 32.4647 29.7614 32.5957 29.6285C32.7267 29.4957 32.8001 29.3166 32.8001 29.13V28.23C32.8001 27.13 32.1501 26.95 31.1401 26.52Z" fill="black"/>
<path d="M26.45 13L35.23 13C35.7553 12.9999 36.2595 13.2065 36.6337 13.5751C37.0079 13.9437 37.2221 14.4448 37.23 14.97V34.48C37.23 35.0104 37.0193 35.5191 36.6442 35.8942C36.2691 36.2693 35.7604 36.48 35.23 36.48H6.77C6.23957 36.48 5.73086 36.2693 5.35579 35.8942C4.98072 35.5191 4.77 35.0104 4.77 34.48L4.77 15C4.77 14.4696 4.98072 13.9609 5.35579 13.5858C5.73086 13.2107 6.23957 13 6.77 13L26.45 13Z" stroke="black" stroke-width="2.01" stroke-miterlimit="10"/>
<path fill-rule="evenodd" clip-rule="evenodd" d="M12.6571 21H12C10.6725 21 9.54643 21.8622 9.15116 23.0571H12.6571V21ZM12.6571 23.9714H9.00013L9 24V26L9.00013 26.0286H12.6571V23.9714ZM13.5714 26.0286V23.9714H16.9999L17 24V26L16.9999 26.0286H13.5714ZM12.6571 26.9428H9.15116C9.54642 28.1378 10.6725 29 12 29H12.6571L12.6571 26.9428ZM13.5714 29L13.5714 26.9428H16.8488C16.4536 28.1378 15.3275 29 14 29H13.5714ZM13.5714 23.0571V21H14C15.3275 21 16.4536 21.8622 16.8488 23.0571H13.5714Z" fill="black"/>
</svg>
