<svg width="48" height="48" viewBox="0 0 48 48" fill="none" xmlns="http://www.w3.org/2000/svg">
<g clip-path="url(#clip0_1_54)">
<path d="M33.0697 23.1553C35.1828 23.1553 36.8959 21.4422 36.8959 19.329C36.8959 17.2159 35.1828 15.5028 33.0697 15.5028C30.9565 15.5028 29.2434 17.2159 29.2434 19.329C29.2434 21.4422 30.9565 23.1553 33.0697 23.1553Z" fill="black"/>
<path d="M38.3698 26.1596C36.6955 25.4399 34.8922 25.0687 33.0697 25.0687C31.2473 25.0687 29.444 25.4399 27.7697 26.1596C26.3525 26.769 25.4172 27.0241 25.4172 28.5829V29.8583C25.4154 29.9898 25.4396 30.1203 25.4886 30.2423C25.5376 30.3643 25.6104 30.4753 25.7027 30.5689C25.795 30.6626 25.905 30.7369 26.0263 30.7876C26.1476 30.8384 26.2777 30.8645 26.4092 30.8645L39.7302 30.8645C39.9946 30.8608 40.2469 30.7531 40.4326 30.5648C40.6182 30.3765 40.7223 30.1227 40.7222 29.8583V28.5829C40.7222 27.0241 39.8011 26.769 38.3698 26.1596Z" fill="black"/>
<path d="M31.7234 7L44.1657 7C44.9101 6.99992 45.6247 7.29268 46.155 7.81505C46.6853 8.33741 46.9888 9.04744 47 9.79174L47 37.4399C47 38.1916 46.7014 38.9125 46.1699 39.4441C45.6383 39.9756 44.9174 40.2742 44.1657 40.2742L3.83426 40.2742C3.08257 40.2742 2.36166 39.9756 1.83013 39.4441C1.29861 38.9125 1 38.1916 1 37.4399L1 9.83426C1 9.08257 1.29861 8.36166 1.83013 7.83014C2.36166 7.29861 3.08257 7 3.83426 7L31.7234 7Z" stroke="black" stroke-width="2.01" stroke-miterlimit="10"/>
<path fill-rule="evenodd" clip-rule="evenodd" d="M12.1771 18.3371H9.9944C8.36591 18.3371 7.04048 19.6346 6.99558 21.2523H12.1771V18.3371ZM12.1771 22.5479H6.9944V25.4632H12.1771V22.5479ZM13.4728 25.4632V22.5479H18.3314V25.4632H13.4728ZM12.1771 26.7588H6.99557C7.04045 28.3765 8.36589 29.6741 9.9944 29.6741H12.1771L12.1771 26.7588ZM13.4728 29.6741L13.4728 26.7588H18.3303C18.2854 28.3765 16.9599 29.6741 15.3314 29.6741H13.4728ZM13.4728 21.2523V18.3371H15.3314C16.9599 18.3371 18.2853 19.6346 18.3303 21.2523H13.4728Z" fill="black"/>
</g>
<defs>
<clipPath id="clip0_1_54">
<rect width="48" height="48" fill="white"/>
</clipPath>
</defs>
</svg>
