<svg xmlns="http://www.w3.org/2000/svg" data-name="Calque 8" viewBox="0 0 15.69 15.69">
  <path d="M15.69 4.78c-.08.3-.26.52-.48.73-.15.14-.29.29-.43.43-.45.45-.81.51-1.39.21-.03.04-.06.09-.09.13-.49.76-1 1.52-1.48 2.29-.34.55-.72 1.06-1.21 1.49-.1.09-.13.19-.13.32v4.66h1c.17.02.29.15.3.31 0 .16-.12.31-.28.33H.35c-.19-.01-.33-.15-.33-.33 0-.18.14-.31.33-.31h.98V8.3c0-.36.09-.46.45-.46h1.69c-.03-.22-.07-.42-.09-.62-.19-2 1.09-3.82 3.05-4.31.98-.25 1.96-.5 2.94-.74.04 0 .08-.03.1-.03-.02-.17-.06-.34-.06-.5 0-.24.11-.45.28-.63.24-.24.46-.49.72-.71.12-.13.32-.2.5-.3h.34c.3.08.52.28.73.49 1.07 1.08 2.15 2.15 3.22 3.22.21.21.41.43.48.72v.34ZM4.15 7.84c.45 0 .88-.01 1.32 0 .22 0 .34-.04.47-.24.78-1.18 2.47-1.18 3.32-.02.2.28.19.38-.04.62-.79.79-1.58 1.58-2.37 2.38-.1.1-.2.23-.25.36-.22.5.06 1.02.6 1.11.3.05.56-.04.78-.26.87-.88 1.73-1.76 2.6-2.64.09-.09.19-.19.26-.3l1.56-2.4.51-.78c-.02-.03-.04-.05-.06-.06-.94-.95-1.87-1.89-2.81-2.84-.06-.06-.12-.07-.2-.05-1.09.28-2.17.55-3.26.83-1.92.51-2.98 2.37-2.42 4.3Zm5.66 3.07s-.03-.02-.05-.03c-.04.05-.07.1-.11.15-.44.44-.86.9-1.32 1.33-.71.67-1.87.45-2.31-.43-.29-.57-.16-1.26.33-1.76.51-.51 1.02-1.02 1.52-1.53.04-.04.07-.08.12-.13H1.97v6.51h7.84v-4.1ZM11.08.63c-.09.04-.18.07-.24.12-.24.23-.48.47-.72.71-.14.15-.14.32 0 .48.07.07.14.14.2.21 1.12 1.14 2.24 2.27 3.37 3.41.16.16.35.16.51 0l.69-.69c.16-.16.16-.34 0-.5-1.2-1.2-2.39-2.4-3.6-3.59-.06-.06-.15-.09-.24-.14Zm-4.49 7.2H8.6c-.46-.6-1.49-.61-2.01 0Z"/>
</svg>
