<svg xmlns="http://www.w3.org/2000/svg" viewBox="0 0 28.18 19.82"><g id="Calque_2" data-name="Calque 2"><g id="Calque_1-2" data-name="Calque 1"><path d="M21.57,4.19a1.49,1.49,0,0,0-.92.78l-.95-.39a14.22,14.22,0,0,0-5.08-1.5,5.14,5.14,0,0,0-2.8,1.36H8.27C7.51,2.55,3.15,1,1.3.41L0,0V14.29H4.06l.26-.2a5.12,5.12,0,0,0,.59-.5l7.91,6.06.21.05a4.27,4.27,0,0,0,1,.12,2.32,2.32,0,0,0,1.49-.48l.1-.08,0,0,.24.14h.27a2.57,2.57,0,0,0,2.12-.86c.08-.1.14-.19.2-.28a2.58,2.58,0,0,0,1.82-.62,2,2,0,0,0,.4-.52,2.65,2.65,0,0,0,.91-.37A3,3,0,0,0,22.91,15a5.5,5.5,0,0,0,.82-.38l.16.45h4.29V1.74ZM6.18,5.11,3.91,11.7,3.65,12a1.58,1.58,0,0,1-.28.3H2V2.76A15,15,0,0,1,6.25,4.94l-.06.15Zm14.28,10L17.63,12l-1.48,1.35,2.64,2.89-.16,0-.31-.16-.68-.63a19,19,0,0,1-1.91-1.89l-1.61,1.19A19.82,19.82,0,0,0,16.29,17l.38.35a.63.63,0,0,1-.28.09l-.49-.33-2.37-2.51-1.45,1.37,1.76,1.87-.16,0L6,11.88,7.84,6.44h2a6.86,6.86,0,0,0-.93,1.27l-.07.2a2.25,2.25,0,0,0,.49,2.15,2.61,2.61,0,0,0,2.34.74A12.48,12.48,0,0,0,15,9.39c1.33,1.19,4.68,4.18,5.95,5.28A1.35,1.35,0,0,1,20.46,15.11Zm1.72-2c-1.6-1.4-6.39-5.67-6.44-5.72l-.57-.5-.64.4a12.49,12.49,0,0,1-3.25,1.52.59.59,0,0,1-.51-.13s-.06-.06,0-.2a16.3,16.3,0,0,1,2.15-2.33,4.48,4.48,0,0,1,1.74-1.09,13.13,13.13,0,0,1,4.3,1.34c.58.24,1.18.5,1.75.71L23,12.71A4.33,4.33,0,0,1,22.18,13.13Zm4-.09h-.89l-.2-.46L22.43,6.15V6l3.75-1.39Z"/></g></g></svg>