<svg xmlns="http://www.w3.org/2000/svg" data-name="Calque 6" viewBox="0 0 15.85 14.02">
  <path d="M0 3.76c.05-.14.08-.29.14-.42.31-.65.83-.96 1.54-.97h2.75v-.45c.01-.26 0-.52.06-.77C4.65.51 5.24.03 5.91.01c.92-.02 1.84-.02 2.75 0 .89.02 1.53.69 1.55 1.6v.77h2.76c.82 0 1.48.5 1.63 1.27.06.33.04.69.04 1.03 0 .14.04.24.13.34 1.45 1.51 1.44 3.84-.02 5.36-.08.08-.11.16-.11.27 0 .28.01.57-.05.85-.16.76-.79 1.26-1.6 1.26H9.43c-.05 0-.12 0-.15-.02-.06-.06-.14-.15-.14-.23 0-.07.1-.15.17-.2.04-.03.12-.01.18-.01h3.45c.59 0 1.04-.31 1.18-.84.05-.18.05-.37.07-.6-1.48.89-2.93.89-4.39 0-.14.14-.29.29-.43.44-.03.03-.03.08-.03.12.01.17-.04.31-.16.43-.63.63-1.25 1.26-1.88 1.88-.38.38-.98.37-1.35 0-.38-.38-.38-.97 0-1.36.62-.63 1.25-1.25 1.87-1.87.12-.12.26-.17.43-.16.05 0 .11-.02.15-.05.15-.13.28-.27.43-.42-.45-.66-.67-1.39-.68-2.19H4.27v.85c0 .38-.25.71-.62.82-.53.16-1.08-.2-1.12-.75-.02-.3 0-.61 0-.92C1.67 7.59.99 7.2.47 6.5c0 .07-.01.11-.01.15v4.44c0 .72.48 1.21 1.2 1.21H4.9c.19 0 .3.09.3.23 0 .15-.11.23-.31.23H1.66c-.85 0-1.44-.5-1.63-1.34 0-.02-.02-.05-.03-.07V3.76Zm4.29 3.43h3.78c.1 0 .12-.04.13-.13.42-2.69 3.45-4.1 5.79-2.69.05.03.11.07.18.11 0-.21.01-.4 0-.58-.01-.14-.04-.28-.1-.4-.22-.46-.6-.67-1.11-.67H1.57C.93 2.87.47 3.35.47 4v.9c0 .76.3 1.37.9 1.83.34.26.72.41 1.16.45-.01-.28.02-.54.21-.75.19-.21.42-.31.7-.31.5.01.76.33.86 1.05ZM12.1 4.3c-1.88-.05-3.42 1.43-3.48 3.29-.06 1.81 1.39 3.39 3.22 3.48 1.86.09 3.46-1.35 3.55-3.2.09-1.9-1.36-3.48-3.28-3.56ZM5.39 2.37v-.71c0-.46.24-.69.7-.69h2.46c.47 0 .7.23.7.7v.7h.51c-.02-.36 0-.72-.06-1.07-.08-.47-.5-.81-.96-.82C7.8.47 6.85.47 5.91.48c-.47 0-.91.38-.97.85-.05.34 0 .69 0 1.04h.47Zm3.39 0v-.7c0-.21-.03-.24-.24-.24H6.16c-.06 0-.12-.01-.17 0-.05.02-.13.08-.13.12-.01.27 0 .53 0 .81h2.93Zm-1.19 9.02c-.45.45-.89.88-1.32 1.32-.2.2-.19.5 0 .69.19.19.49.2.7 0 .12-.11.23-.23.35-.35l.96-.96c-.03-.03-.04-.06-.07-.08-.2-.21-.41-.42-.63-.64Zm-3.78-3.6v-.8c0-.21-.18-.37-.38-.37s-.4.12-.42.31c-.02.28 0 .57 0 .87h.81Zm-.01.48h-.81c0 .22-.04.43.16.57.14.1.29.11.44.03.23-.13.22-.35.21-.6Zm4.14 2.78.67.67c.09-.07.18-.15.3-.25-.17-.16-.32-.3-.46-.44q-.27-.26-.51.02Zm1.19-.8c-.14.13-.27.26-.39.38.11.11.22.21.3.3.13-.12.26-.25.39-.38-.09-.1-.2-.2-.3-.3Z"/>
  <path d="M12 4.89c1.29.01 2.41.9 2.71 2.15.04.16-.02.28-.16.32-.14.03-.24-.04-.29-.2-.27-.98-.9-1.58-1.9-1.76-1.31-.24-2.61.8-2.68 2.13-.07 1.33.86 2.39 2.19 2.49 1.05.08 2.08-.66 2.36-1.7.01-.04.02-.09.04-.13.05-.14.16-.2.29-.17.12.03.19.15.16.29-.19.8-.63 1.42-1.36 1.81-1.05.56-2.1.5-3.05-.22-.95-.73-1.29-1.73-1-2.89.29-1.15 1.07-1.84 2.24-2.07.15-.03.31-.03.46-.05Z"/>
</svg>
