<svg xmlns="http://www.w3.org/2000/svg" data-name="Calque 5" viewBox="0 0 15.98 14.21">
  <path d="M14.52 14.21H1.46c-.52 0-.99-.27-1.26-.73-.27-.48-.27-1.05 0-1.52L6.74.73c.13-.22.31-.41.53-.54.33-.19.72-.24 1.1-.14.37.1.69.34.88.68l6.53 11.22c.28.48.28 1.04 0 1.52-.26.46-.74.74-1.26.74ZM7.99.75c-.12 0-.24.03-.35.09-.11.06-.2.15-.26.26L.85 12.32c-.14.24-.14.53 0 .78.13.23.36.36.61.36h13.05c.26 0 .48-.13.61-.36.14-.24.14-.53 0-.78L8.6 1.1C8.51.93 8.35.82 8.17.77 8.11.75 8.05.75 7.99.75Zm0 11.53c-.73 0-1.32-.6-1.32-1.33s.59-1.33 1.32-1.33 1.32.6 1.32 1.33-.59 1.33-1.32 1.33Zm0-1.92c-.32 0-.58.26-.58.59s.26.59.58.59.58-.26.58-.59-.26-.59-.58-.59Zm0-.95h-.08c-.44-.04-.78-.38-.82-.82l-.33-3.37c-.07-.68.43-1.29 1.1-1.36h.12c.35 0 .68.14.91.4.24.26.35.61.32.96l-.33 3.37c-.02.24-.13.45-.32.61-.16.14-.36.21-.57.21Zm0-5.19-.05.37c-.27.03-.47.27-.44.55l.33 3.37c0 .08.07.14.14.15.06.01.09-.02.11-.03.02-.02.05-.05.06-.11l.33-3.38c.01-.14-.03-.28-.13-.39-.09-.1-.22-.16-.36-.16v-.37Z"/>
</svg>
