<svg xmlns="http://www.w3.org/2000/svg" viewBox="0 0 29.18 26.8"><g id="Calque_2" data-name="Calque 2"><g id="Calque_1-2" data-name="Calque 1"><path d="M23.78,7.85a1.3,1.3,0,1,0-1.3-1.3A1.3,1.3,0,0,0,23.78,7.85Z"/><path d="M18.59,7.85a1.3,1.3,0,1,0-1.3-1.3A1.3,1.3,0,0,0,18.59,7.85Z"/><path d="M21.09,12.23A3.28,3.28,0,0,0,23,11.82a3.21,3.21,0,0,0,1.31-1.37.47.47,0,0,0,0-.23A.43.43,0,0,0,24.2,10,.41.41,0,0,0,24,9.85a.43.43,0,0,0-.22-.06H18.45a.46.46,0,0,0-.22.06.41.41,0,0,0-.17.15.42.42,0,0,0-.08.22.62.62,0,0,0,0,.23,3.33,3.33,0,0,0,1.28,1.35A3.2,3.2,0,0,0,21.09,12.23Z"/><path d="M6.47,17.09a1.3,1.3,0,1,0-1.3-1.3A1.31,1.31,0,0,0,6.47,17.09Z"/><path d="M11.66,17.09a1.3,1.3,0,1,0-1.3-1.3A1.3,1.3,0,0,0,11.66,17.09Z"/><path d="M9.07,21.48a3.23,3.23,0,0,0,3.12-1.79.45.45,0,0,0,0-.23.37.37,0,0,0-.08-.22.5.5,0,0,0-.17-.15.59.59,0,0,0-.23-.05H6.4a.59.59,0,0,0-.23.05.65.65,0,0,0-.18.15.58.58,0,0,0-.08.22.45.45,0,0,0,0,.23,3.34,3.34,0,0,0,1.29,1.37,3.29,3.29,0,0,0,1.84.42Z"/><path d="M21,16.28a8.44,8.44,0,0,1-1.81-.2,1,1,0,0,1-.75-1.2,1,1,0,0,1,1.19-.75,6.32,6.32,0,0,0,1.37.15A6.14,6.14,0,1,0,14.9,8.14a1,1,0,0,1-2,0A8.14,8.14,0,1,1,21,16.28Z"/><path d="M9.14,26.8a9.14,9.14,0,1,1,9.14-9.14A9.15,9.15,0,0,1,9.14,26.8Zm0-16.28a7.14,7.14,0,1,0,7.14,7.14A7.14,7.14,0,0,0,9.14,10.52Z"/></g></g></svg>