<svg aria-labelledby="title" viewBox="0 0 45.47 39.41" xmlns="http://www.w3.org/2000/svg"><path d="M19.84.25c-.23.22-.55.99-2.66 6.53l-2.4 6.28-7.06-.03c-6.64-.03-7.07-.02-7.26.11-.62.4-.6 1.32.02 1.69.15.09.4.13.91.13s.7.03.7.09c0 .05.48 4.82 1.07 10.6.66 6.45 1.12 10.67 1.2 10.93a4.018 4.018 0 0 0 2.55 2.68c.47.16.53.16 16.07.16s15.61 0 16.07-.16a4.04 4.04 0 0 0 2.55-2.68c.08-.26.54-4.47 1.2-10.9.59-5.77 1.07-10.54 1.07-10.6 0-.09.1-.12.44-.12.53 0 .76-.11.99-.45.34-.5.16-1.12-.42-1.39l-.35-.17-6.67.03-6.67.03-2.13-6.17C28.33 4.72 27.6 2.61 26.85.5c-.18-.41-.91-.61-1.39-.36-.27.14-.47.5-.47.83 0 .13.92 2.89 2.04 6.14.68 1.97 1.36 3.95 2.04 5.92 0 .01-2.73.02-6.06.02s-6.06-.02-6.06-.04 1.02-2.7 2.26-5.94c1.24-3.24 2.26-5.99 2.26-6.11 0-.51-.5-.94-1.07-.94-.25 0-.37.05-.57.25m22 15.05c-.02.17-.51 4.88-1.08 10.47s-1.07 10.28-1.12 10.42c-.14.42-.71.97-1.19 1.15-.41.15-.53.16-15.48.16s-15.06 0-15.48-.16c-.47-.18-1.05-.74-1.19-1.17-.04-.14-.55-4.84-1.11-10.44-.35-3.49-.71-6.98-1.07-10.47l-.04-.27h37.81l-.04.31m-30.91 3.3c-.47.23-.45-.07-.48 7.05-.01 3.58 0 6.7.03 6.93.04.31.1.47.26.62.4.4 1.24.35 1.57-.1.16-.22.16-.23.16-7.05 0-5.55-.02-6.88-.1-7.08-.19-.44-.91-.62-1.44-.36m5.51 0c-.5.22-.48-.06-.48 7.36s0 7.07.39 7.35c.45.31 1.2.21 1.45-.2.15-.24.15-.44.15-7.15 0-6.13-.01-6.92-.12-7.07-.27-.38-.89-.51-1.4-.28m5.53 0c-.51.22-.48-.14-.48 7.37s-.03 7.2.54 7.43c.38.15.53.15.91 0 .58-.23.54.2.54-7.43s.03-7.15-.5-7.37a1.31 1.31 0 0 0-1.01 0m5.97 0c-.5.22-.48-.06-.48 7.36s0 7.07.39 7.35c.45.31 1.2.21 1.45-.2.15-.24.15-.44.15-7.15 0-6.13-.01-6.92-.12-7.07-.27-.38-.89-.51-1.4-.28m5.99 0c-.47.23-.45-.07-.47 7.05-.01 3.58 0 6.7.03 6.93.04.31.1.47.26.62.4.4 1.24.35 1.57-.1.16-.22.16-.23.16-7.05 0-5.55-.02-6.88-.1-7.08-.19-.44-.91-.62-1.44-.36"></path><title></title></svg>