<svg xmlns="http://www.w3.org/2000/svg" data-name="Calque 16" viewBox="0 0 14.07 14.07">
  <path d="M8.9 0c.19.06.38.1.55.19.59.3.91.79.96 1.45 0 .09.04.13.13.16.56.19.92.71.89 1.3 0 .09.02.13.1.16.45.2.77.53.97.98.05.11.05.21-.06.29-.1.07-.25.04-.3-.09-.18-.41-.48-.69-.89-.87-.17-.07-.24-.23-.24-.41.01-.55-.18-.83-.69-1.01-.22-.08-.31-.22-.32-.49-.03-.55-.37-1.01-.89-1.19-.83-.29-1.72.31-1.75 1.19-.01.29-.1.41-.38.5-.4.13-.66.47-.64.89.02.29-.09.48-.37.58-.02 0-.04.02-.07.04l.21.78c.23.88.41 1.76.41 2.68 0 .05.03.11.06.15.47.68 1.43.54 1.85 0 .03-.04.04-.09.04-.14V6.07c0-.06-.03-.14-.08-.19-.26-.27-.53-.54-.8-.81-.08-.08-.1-.17-.04-.27.06-.09.15-.11.24-.08.04.02.08.05.12.09.18.18.35.36.55.56 0-.07.02-.1.02-.13v-.77c0-.17.07-.27.2-.27s.21.1.21.27v1.26l.05.03c.1-.11.19-.22.3-.33l.24-.24c.11-.1.23-.11.31-.02.09.09.08.21-.03.32l-.39.39c-.16.16-.38.3-.46.5-.08.19 0 .44-.03.66-.02.18.06.3.19.41.56.47 1.61.46 1.9-.6.06-.23.18-.36.4-.46.46-.2.74-.57.85-1.06 0-.03.01-.05.02-.08.04-.12.13-.18.24-.16.12.03.18.11.16.23-.04.28-.14.53-.29.76-.03.04-.05.08-.08.12.18.06.36.1.52.18.73.36 1.11.97 1.25 1.75 0 .04.02.09.03.13v.52s-.02.04-.02.06c-.16 1.08-.77 1.74-1.84 1.99v2.81h1.57c.13 0 .22.03.29.14v.14c-.07.11-.16.14-.29.14H.17c-.11-.03-.17-.1-.16-.21 0-.1.07-.17.17-.19h2.88v-2.99c-.14-.02-.28-.04-.42-.08-1.21-.3-1.97-1.1-2.4-2.24-.25-.64-.28-1.3-.2-1.97.11-.93.32-1.85.6-2.74.02-.07.07-.15.13-.18s.17-.02.21.02c.05.05.08.16.06.23-.06.28-.16.54-.23.82-.21.82-.4 1.65-.4 2.5 0 1.12.42 2.05 1.34 2.73.38.28.81.44 1.3.48 0-.04.01-.08.01-.12V8.76c0-.06-.04-.14-.08-.19-.24-.25-.49-.49-.74-.74-.11-.12-.13-.23-.04-.32s.21-.08.32.03c.17.16.33.33.5.49h.04v-1.7c.02-.12.1-.2.21-.2.11 0 .19.09.2.21v.82c.01 0 .02.01.03.02.13-.14.27-.27.4-.41l.12-.12c.11-.1.23-.11.31-.02.09.09.08.2-.03.31-.14.15-.29.29-.44.44-.13.13-.31.25-.38.41-.07.16-.02.37-.02.56v1.89c.44-.03.83-.17 1.18-.39.81-.52 1.26-1.28 1.42-2.22.11-.63.02-1.26-.09-1.88-.22-1.23-.56-2.42-1.08-3.56-.22-.48-.48-.95-.85-1.34-.12-.13-.27-.24-.42-.33-.25-.15-.51-.14-.76 0-.31.18-.54.43-.72.73-.25.43-.47.89-.71 1.33-.03.06-.05.13-.08.19-.06.14-.16.2-.28.16-.12-.05-.17-.17-.11-.31.21-.44.42-.88.64-1.32.08-.16.2-.31.31-.46.3-.4.65-.73 1.16-.84h.33c.56.14.93.52 1.25.97.34.48.59 1.01.81 1.55.1.25.19.5.29.75q.15-.03.15-.18c0-.62.33-1.11.92-1.3.07-.02.1-.06.1-.13.03-.56.28-1 .73-1.34.23-.17.5-.25.78-.32h.44ZM3.48 10.67v2.97h4.99v-5.8c-.69.41-1.35.44-1.99-.05-.41 1.58-1.31 2.62-2.99 2.88Zm8.3.17c-.76-.14-1.32-.56-1.64-1.26-.15-.32-.22-.67-.23-1.02v-.39c-.39-.01-.71-.12-1.02-.32v5.8h2.88v-2.8Zm.42-.44s.02.03.04.04c.19-.09.4-.15.58-.27 1.03-.67 1.14-2.34.19-3.15-.44-.37-.93-.58-1.49-.23-.05.03-.1.09-.12.14-.18.49-.46.89-.95 1.12-.04.02-.08.07-.08.11-.09.6.02 1.15.39 1.63.26.33.59.55 1.03.62v-.16c0-.42-.02-.83 0-1.25.02-.21-.17-.52.2-.62.36.11.15.41.2.62.02.06 0 .13 0 .19.01 0 .02 0 .04.01.09-.1.19-.2.28-.3.11-.12.23-.13.33-.04s.09.21-.03.33c-.18.18-.36.36-.54.55-.03.03-.06.07-.07.11v.55Z"/>
</svg>
