<svg xmlns="http://www.w3.org/2000/svg" data-name="Calque 14" viewBox="0 0 15.87 12.31">
  <path d="M5.4 5.9c-.23-.4-.45-.79-.66-1.18-.47-.84-.19-1.73.68-2.15C7.13 1.76 8.84.95 10.54.14c.81-.38 1.69.03 1.86.89.11.56-.17 1.11-.72 1.4-.79.4-1.59.8-2.38 1.19-.46.23-.91.46-1.38.69.03.05.05.09.08.13.93 1.36 1.86 2.71 2.78 4.07.06.09.14.14.25.17.29.1.59.2.85.36.7.41 1.4.44 2.09.03.46-.27.94-.45 1.48-.46.28 0 .46.24.37.48-.05.15-.17.23-.32.23-.46 0-.85.19-1.25.41-.9.49-1.81.47-2.68-.05-.76-.45-1.49-.46-2.26 0-.92.55-1.87.55-2.8 0-.75-.45-1.48-.46-2.23 0-.94.56-1.89.56-2.83 0-.33-.19-.67-.33-1.06-.34-.26 0-.42-.16-.41-.37 0-.22.19-.38.45-.34.22.03.4-.04.58-.15 1.4-.83 2.81-1.66 4.22-2.49.05-.03.09-.06.15-.1Zm4.61 2.76c-.05-.08-.08-.13-.12-.18-.83-1.21-1.67-2.42-2.5-3.63-.36-.52-.24-.95.32-1.23 1.21-.6 2.41-1.21 3.62-1.81.16-.08.29-.18.35-.35.08-.22.02-.45-.15-.6-.2-.17-.42-.18-.66-.06-1.72.82-3.44 1.63-5.15 2.44-.48.23-.61.66-.35 1.12.2.35.4.7.6 1.06.29.52.2.88-.31 1.18-1.29.76-2.59 1.53-3.88 2.29-.04.02-.07.05-.11.08.76.5 1.52.56 2.3.09.13-.08.27-.17.42-.22.87-.34 1.71-.26 2.5.23.63.39 1.29.42 1.94.09.38-.19.73-.42 1.19-.49Zm3.01 3.64c-.58 0-1.07-.17-1.53-.44-.58-.35-1.2-.39-1.83-.13-.1.04-.2.1-.3.16-.97.57-1.94.57-2.91-.02-.6-.36-1.22-.41-1.86-.14-.12.05-.23.13-.35.2-.92.51-1.84.52-2.74 0-.36-.21-.73-.36-1.16-.36-.2 0-.35-.17-.35-.36 0-.19.15-.35.36-.35.53-.02 1.02.14 1.47.43.48.31 1.01.38 1.55.25.19-.05.38-.14.55-.24.99-.59 1.96-.59 2.95 0 .69.42 1.4.42 2.09 0 .97-.58 1.94-.6 2.91-.03.75.44 1.49.44 2.23-.02.42-.26.87-.39 1.36-.38.23 0 .39.15.39.35 0 .2-.16.36-.38.36-.38 0-.73.11-1.05.32-.44.28-.93.42-1.41.42Z"/>
  <path d="M12.92 8.24c-1.42 0-2.57-1.16-2.58-2.59 0-1.4 1.17-2.58 2.57-2.57 1.43 0 2.59 1.16 2.58 2.58 0 1.42-1.16 2.58-2.58 2.58Zm0-.73c1.02 0 1.85-.82 1.85-1.84 0-1.03-.81-1.86-1.83-1.86-1.04 0-1.87.82-1.87 1.86 0 1.02.82 1.84 1.85 1.84Z"/>
</svg>
