<svg xmlns="http://www.w3.org/2000/svg" data-name="Calque 11" viewBox="0 0 14.01 15.9">
  <path d="M7.42 15.9c-.88-.24-1.76-.47-2.64-.71-.31-.08-.63-.17-.94-.26-.25-.07-.48-.04-.71.08-.09.05-.18.11-.27.15-.17.07-.29.15-.27.37.01.15-.11.24-.26.23-.68-.01-1.37-.03-2.05-.05-.19 0-.28-.12-.28-.32.03-1.22.07-2.44.1-3.66 0-.25.01-.51.02-.76 0-.23.1-.32.33-.31.64.01 1.27.03 1.91.05.28 0 .36.1.35.39v.29c.22-.08.44-.17.67-.23.82-.22 1.62-.17 2.37.22.48.25.98.37 1.52.37.48 0 .95.03 1.43.03.63.01 1.12.28 1.46.81.01.02.02.03.04.06.14-.07.28-.13.42-.2.56-.26 1.11-.53 1.67-.79.59-.27 1.28-.07 1.63.46.14.21.12.34-.09.48-1.51.97-3.01 1.95-4.52 2.92-.33.21-.7.29-1.08.35-.05 0-.1.02-.15.03h-.65Zm-4.79-1.23c.08-.04.15-.07.21-.11.37-.2.75-.24 1.15-.13.52.15 1.03.29 1.55.43.61.17 1.22.36 1.84.48.59.11 1.18.02 1.69-.31 1.38-.88 2.75-1.78 4.13-2.67.05-.03.09-.06.14-.09-.24-.23-.57-.28-.9-.12-.65.3-1.29.61-1.93.91-.12.05-.16.11-.13.24.05.26-.04.44-.38.42-.92-.03-1.84-.05-2.76-.08-.09 0-.18 0-.26-.02-.14-.02-.2-.12-.21-.25 0-.13.1-.24.23-.25h.15c.83.02 1.67.04 2.5.07h.18c-.08-.48-.52-.87-1.01-.9-.28-.02-.57-.02-.85-.03-.39-.01-.79-.02-1.18-.03-.47-.02-.87-.22-1.29-.41-.91-.43-1.81-.38-2.69.12-.09.05-.13.11-.13.22-.01.57-.03 1.15-.05 1.72v.8ZM.64 11.2c-.04 1.31-.07 2.64-.11 4h1.55c.04-1.32.07-2.65.11-4H.64ZM7.26 0c.13.08.17.2.17.35v2.29c0 .05 0 .11-.01.15-.03.13-.12.19-.25.19s-.22-.07-.25-.19c-.01-.05-.01-.11-.01-.17V.36c0-.16.03-.28.17-.37h.19Z"/>
  <path d="M7.16 11.03c-2.09 0-3.78-1.69-3.78-3.78 0-2.08 1.7-3.78 3.79-3.78s3.78 1.69 3.78 3.78-1.7 3.78-3.78 3.78Zm0-.52c1.79 0 3.26-1.44 3.27-3.23.01-1.81-1.43-3.27-3.24-3.29-1.79-.01-3.27 1.44-3.28 3.24 0 1.81 1.44 3.27 3.25 3.28Zm1.7-8.36v-.54c0-.19.11-.3.26-.3.15 0 .25.11.25.29v1.12c0 .17-.11.29-.26.28-.15 0-.25-.11-.25-.28v-.57Zm-3.91-.01v-.56c0-.17.1-.27.25-.28.15 0 .26.11.26.28v1.13c0 .17-.1.27-.25.28-.15 0-.26-.11-.26-.28v-.57Z"/>
  <path d="M7.76 8.09c0-.34-.24-.58-.62-.6-.32-.01-.59-.14-.81-.38-.5-.57-.3-1.47.4-1.76.11-.05.15-.1.14-.21V5c.03-.14.12-.2.25-.21.13 0 .26.1.25.22-.02.22.08.29.26.37.39.17.59.5.63.92.02.19-.09.32-.25.33-.15 0-.26-.1-.28-.29-.03-.32-.25-.54-.56-.56-.29-.02-.56.2-.61.49-.05.28.11.57.39.66.09.03.18.03.27.04.53.04.93.42 1.02.96.08.48-.21.99-.68 1.17-.16.06-.22.13-.2.29.02.13-.05.25-.19.26-.09 0-.2-.03-.27-.09-.05-.05-.06-.16-.05-.25 0-.12-.03-.17-.14-.22-.41-.18-.63-.5-.68-.94-.02-.19.08-.32.24-.34.16-.01.27.1.28.3.03.34.29.56.63.55.3-.01.55-.27.55-.58Z"/>
</svg>
