<svg width="46" height="40" viewBox="0 0 46 40" fill="none" xmlns="http://www.w3.org/2000/svg">
<path d="M3.5 14.5L3.50317 13.5H3.5V14.5ZM43.5 14.5L43.5 13.5L43.4986 13.5L43.5 14.5ZM16 14.5397L15.9968 15.5397L16.0014 15.5397L16 14.5397ZM21.9337 1.85803C22.1314 1.34235 21.8737 0.764022 21.358 0.566289C20.8424 0.368556 20.264 0.626298 20.0663 1.14197L21.9337 1.85803ZM27.4451 1.17329C27.2647 0.651315 26.6953 0.374439 26.1733 0.554874C25.6513 0.735309 25.3744 1.30473 25.5549 1.82671L27.4451 1.17329ZM1.5 13.5C0.947715 13.5 0.5 13.9477 0.5 14.5C0.5 15.0523 0.947715 15.5 1.5 15.5V13.5ZM45 15.5C45.5523 15.5 46 15.0523 46 14.5C46 13.9477 45.5523 13.5 45 13.5V15.5ZM41.275 36.3045L42.2699 36.4061L41.275 36.3045ZM5.72495 36.3045L4.73012 36.4061L5.72495 36.3045ZM8.70946 40H38.2905V38H8.70946V40ZM42.2699 36.4061L44.4948 14.6015L42.5052 14.3985L40.2802 36.203L42.2699 36.4061ZM2.50517 14.6015L4.73012 36.4061L6.71979 36.203L4.49483 14.3985L2.50517 14.6015ZM16.0032 13.5397L3.50317 13.5L3.49683 15.5L15.9968 15.5397L16.0032 13.5397ZM16.9337 14.8977L21.9337 1.85803L20.0663 1.14197L15.0663 14.1816L16.9337 14.8977ZM43.4986 13.5L30.9986 13.518L31.0014 15.518L43.5014 15.5L43.4986 13.5ZM30.9986 13.518L15.9986 13.5397L16.0014 15.5397L31.0014 15.518L30.9986 13.518ZM25.5549 1.82671L30.0549 14.8447L31.9451 14.1913L27.4451 1.17329L25.5549 1.82671ZM3.5 13.5H1.5V15.5H3.5V13.5ZM43.5 15.5H45V13.5H43.5V15.5ZM38.2905 40C40.3425 40 42.0616 38.4474 42.2699 36.4061L40.2802 36.203C40.1761 37.2237 39.3165 38 38.2905 38V40ZM8.70946 38C7.6835 38 6.82394 37.2237 6.71979 36.203L4.73012 36.4061C4.93842 38.4474 6.65754 40 8.70946 40V38Z" fill="black"/>
<path d="M12 20V33M17.5 20V33M23 20V33M29 20V33M35 20V33" stroke="black" stroke-width="2" stroke-linecap="round"/>
</svg>
