<svg xmlns="http://www.w3.org/2000/svg" data-name="Calque 17" viewBox="0 0 15.98 13.43">
  <path d="M15.81 11.79c-.86-1.12-1.72-2.23-2.59-3.34l-.17-.22c-.31-.4-.75-.64-1.22-.65-.47-.02-.92.18-1.26.57-.26.29-.52.59-.77.89l-.2.24c-.04.05-.09.08-.13.12-.04-.04-.08-.07-.11-.1-.7-.57-1.39-1.15-2.09-1.71v-.1s0-.2.02-.39c.03-.37.05-.75.07-1.12l.05-.94c.03-.63.07-1.26.09-1.89 0-.33-.11-.65-.34-.89-.23-.24-.53-.38-.86-.38-.97-.02-1.77-.02-2.51 0-.25 0-.6.16-.74.39-.31.52-.61 1.09-.91 1.74-.13.28-.13.6 0 .89.12.27.34.48.59.57l.19.06.35-.65c.12.1.25.2.38.3l-.45.85 2.16 1.13.55-1.08-.03 1.54c-.01.26.11.53.33.72.19.17.43.26.67.26.05 0 .1 0 .15-.01l.18-.03.05-.4c.63.51 1.24 1.02 1.85 1.52-.08.04-.16.09-.25.11-.12.03-.24.1-.32.2-.54.61-1.07 1.23-1.6 1.86-.11.13-.19.37-.12.57.08.23.4.28.52.28h8.08s.49 0 .57-.3c.05-.2-.04-.44-.15-.58ZM3.48 4.45l.16-.29c.15-.29.31-.58.46-.86h.52l-.77 1.46c-.13-.1-.25-.2-.37-.3Zm3.43.54-.05.94c-.02.37-.04.74-.07 1.11-.02.2-.03.4-.03.42v.43l-.02.2c-.08-.02-.17-.07-.24-.13-.11-.1-.17-.22-.16-.35V6.57l.08-1.49-.04-.19-.36-.15-.89 1.74-1.3-.68 1.58-3H4c-.16 0-.27.13-.31.21-.16.3-.32.6-.49.91l-.51.96c-.06-.05-.1-.12-.14-.2-.07-.16-.07-.35 0-.5.29-.64.58-1.19.88-1.69.04-.06.22-.16.35-.16.73-.03 1.52-.03 2.48 0 .2 0 .38.09.52.23.14.15.21.34.21.54-.02.63-.05 1.26-.08 1.88Zm8.48 7.2H7.26c0-.02.02-.04.02-.05.52-.62 1.05-1.24 1.59-1.85.02-.02.05-.04.07-.04.38-.09.7-.29 1.02-.66l.2-.24c.25-.3.51-.59.77-.88.24-.27.58-.43.89-.41.33.01.63.18.86.47l.17.22c.86 1.11 1.73 2.22 2.59 3.34.02.03.04.07.05.1-.03 0-.06.01-.09.01Z"/>
  <path d="m.94 13.43-.21-.12c-.65-.35-.91-1.15-.58-1.78.61-1.16 1.23-2.32 1.86-3.48l.7-1.3.19-.15.16.05.34.18 1.32.69c.11.06.17.16.22.23.34.53.68 1.04 1.01 1.56.07.11.11.25.11.37v3.26s0 .09-.01.13l-.03.19-.2.05c-.35 0-.67-.11-.92-.35-.26-.24-.4-.56-.41-.91v-1.96c0-.09-.03-.2-.08-.28-.24-.4-.49-.79-.75-1.2l-.07-.11-2.65 4.93Zm4.86-.47h.02-.02Zm-2.27-5.4.51.81c.26.41.51.81.75 1.21.09.15.15.34.15.52v1.96c0 .22.1.42.26.57.1.1.23.16.36.2V9.69c0-.03-.02-.08-.04-.12-.33-.52-.66-1.03-1-1.55-.02-.03-.05-.07-.06-.08-.43-.23-.87-.46-1.31-.69L3 7.17l-.59 1.1c-.62 1.15-1.25 2.31-1.85 3.47-.17.33-.08.73.19.99l2.77-5.19Zm-.43-.52Zm5.23-4.52c-.34 0-.66-.13-.89-.36-.24-.23-.36-.55-.36-.89C7.08.56 7.62.01 8.33 0c.37.02.67.13.91.36.24.24.37.56.37.9 0 .7-.56 1.25-1.26 1.25Zm0-2.04c-.44 0-.77.33-.77.78 0 .21.08.4.22.55s.35.22.55.22c.44 0 .78-.33.78-.77 0-.22-.08-.41-.22-.56-.14-.14-.34-.22-.56-.22Z"/>
</svg>
