<svg xmlns="http://www.w3.org/2000/svg" data-name="Calque 4" viewBox="0 0 15.33 15.33">
  <path d="M13.27 15.33h-.51s-.06-.02-.1-.03c-.83-.17-1.36-.67-1.6-1.48-.08-.29-.08-.29-.38-.29h-6.2c-.11 0-.16.02-.18.14-.18.83-.68 1.36-1.5 1.6-.08.02-.15.04-.23.06h-.48s-.09-.02-.13-.03c-.23-.08-.46-.16-.68-.26-.12-.06-.15-.19-.09-.29.06-.11.18-.14.3-.09.03.01.06.03.09.05.62.32 1.35.21 1.84-.28.24-.24.4-.53.45-.89H3.5c-.12 0-.24-.04-.36-.05-.17.44-.44.66-.82.66-.34 0-.65-.22-.77-.54-.14-.37-.02-.68.38-1.02-.09-.23-.18-.45-.27-.7-.1.06-.2.11-.29.18-.63.47-.8 1.29-.43 2.01.08.16.06.29-.07.35-.12.06-.25.01-.33-.14-.2-.37-.29-.78-.23-1.2.11-.77.52-1.32 1.23-1.64.04-.02.08-.08.08-.13-.02-.36-.05-.72-.08-1.07-.1-1.17-.19-2.35-.29-3.52-.02-.29-.05-.58-.07-.88-.47-.01-.83-.2-1.05-.6-.06-.11-.09-.24-.14-.36v-.33c.01-.03.02-.07.03-.1.14-.47.44-.8.93-.83.31-.02.39-.16.45-.4.04-.16.13-.32.2-.49h-.21c-.24 0-.42-.12-.52-.34-.1-.22-.08-.45.09-.63.3-.32.61-.63.93-.93.17-.17.39-.19.61-.1.23.1.34.28.35.53v.2h.05c.99-.5 1.99-.51 2.99-.02.03.01.07.03.1.01.23-.1.46-.21.71-.32-.05-.05-.1-.08-.15-.12-.18-.19-.23-.41-.12-.65.12-.25.32-.37.58-.37h1.21c.25 0 .44.12.54.35.1.23.06.45-.11.64-.05.05-.09.1-.14.15.21.09.42.17.62.28.11.06.19.07.31 0 .7-.35 1.43-.45 2.19-.26.28.07.54.18.83.28v-.21c.02-.23.13-.41.35-.5.21-.09.42-.08.59.07.34.32.67.64.98.98.16.17.17.39.07.6-.09.21-.26.32-.49.33h-.23c.09.23.19.43.24.65.04.16.1.22.27.22.56 0 1.03.46 1.08 1.02.05.56-.34 1.08-.9 1.19-.09.02-.18.03-.29.04l-.45 5.55c.05.02.09.04.13.06.78.35 1.26 1.14 1.21 1.99-.06.85-.66 1.58-1.49 1.81-.09.02-.18.05-.27.07ZM1.65 5.84v.13c.03.42.07.84.1 1.25.1 1.18.19 2.37.29 3.55.03.35.04.7.1 1.04.14.75.79 1.27 1.58 1.27h8.03c.74-.03 1.39-.62 1.47-1.36.06-.56.1-1.13.15-1.7.09-1.05.17-2.11.26-3.16.03-.34.05-.67.08-1.03h-2.65c-.16 0-.26-.1-.26-.23s.1-.21.25-.22h3.14c.48 0 .8-.43.66-.88-.09-.3-.35-.47-.7-.47H1.08c-.42.03-.72.45-.6.86.09.31.35.49.72.49h8.92c.13.01.22.1.22.22s-.08.21-.21.23H1.65Zm3.28-2.25h5.35c-.18-.94-1.15-2.1-2.67-2.11-1.55 0-2.51 1.2-2.68 2.11Zm8.63 0c-.39-1.68-2.38-2.57-3.85-1.78.55.48.89 1.08 1.05 1.78h2.8ZM5.55 1.77c-1.6-.72-3.41.26-3.78 1.82h2.68c.16-.72.52-1.33 1.1-1.82Zm5.92 11.78c.03.65.7 1.28 1.43 1.33.79.06 1.52-.5 1.66-1.26.13-.73-.28-1.53-.89-1.72-.09.23-.17.45-.26.68.39.31.52.63.39 1-.11.32-.41.55-.74.56-.4.02-.67-.19-.86-.65-.24.02-.47.04-.72.07ZM7.62.45h-.6c-.06 0-.14.04-.15.08-.02.05.02.12.05.18.01.03.04.04.06.06.15.2.34.25.61.27.32.02.51-.1.69-.32 0 0 .02-.01.02-.02.02-.06.06-.13.04-.17-.02-.04-.1-.08-.15-.08h-.57ZM1.63 2.28c.28 0 .28 0 .48-.2.08-.08.17-.15.25-.24.03-.03.06-.08.07-.12 0-.14.01-.29 0-.43 0-.05-.05-.11-.09-.14-.04-.02-.11 0-.15.03-.29.28-.58.57-.87.87-.03.03-.04.11-.03.15.02.04.08.07.12.08.07.01.14 0 .21 0Zm12.03 0c.1 0 .18.01.24 0 .05-.01.12-.05.14-.09.02-.04 0-.12-.04-.16-.28-.29-.56-.57-.85-.85-.04-.03-.12-.05-.16-.04-.04.02-.08.09-.08.14-.02.28-.04.57.27.74.02.01.04.03.05.05.11.17.26.26.43.2ZM2.3 13.68c.18 0 .31-.1.37-.26.03-.09.03-.15-.07-.21-.09-.05-.16-.11-.24-.18-.14-.12-.23-.11-.34.04-.09.12-.11.26-.04.39.07.14.19.2.31.21Zm11.11-.38c-.05-.09-.09-.19-.15-.26-.08-.09-.17-.12-.28-.01-.08.08-.19.14-.28.22-.03.03-.06.09-.06.13.02.19.21.32.4.31.19-.02.34-.18.37-.38Z"/>
  <path d="M8.74 8.08c.02-.09.02-.14.04-.2.03-.13.12-.18.24-.17.12.01.2.09.19.21-.03.31-.06.62-.11.94-.02.13-.16.2-.3.14-.27-.11-.54-.23-.81-.35-.12-.05-.16-.18-.11-.29.04-.11.17-.16.29-.12.05.01.09.03.18.07-.14-.24-.25-.45-.38-.64-.15-.21-.46-.18-.61.05-.13.2-.24.41-.36.62-.09.16-.21.2-.33.14-.13-.07-.15-.2-.06-.36.12-.2.23-.41.35-.61.35-.57 1.09-.57 1.44 0 .11.18.21.37.34.58ZM5.8 9.51c-.08.03-.13.05-.18.06-.12.03-.22-.01-.27-.13-.05-.11-.02-.22.09-.27.28-.13.57-.26.86-.37.13-.05.25.04.27.18.04.3.08.59.1.89.01.13-.09.22-.21.23-.12 0-.21-.07-.24-.2 0-.04-.01-.08-.05-.14-.12.21-.25.41-.35.63-.1.22.09.47.34.48h.79c.14.01.23.11.22.24 0 .12-.1.21-.23.21-.28 0-.57.01-.85 0-.56-.03-.91-.65-.66-1.16.08-.17.18-.33.28-.49l.08-.16Zm2.69 1.81c.08.06.12.09.16.13.09.09.1.2.03.3-.07.1-.19.12-.28.06-.26-.18-.51-.36-.76-.56-.11-.09-.09-.24.02-.33.23-.18.47-.35.71-.52.11-.08.23-.05.31.05.07.09.05.22-.04.31-.03.03-.07.06-.13.11.27 0 .51.02.75 0 .25-.03.37-.31.24-.55-.12-.22-.26-.44-.37-.66-.03-.07-.03-.18.01-.25.03-.05.14-.09.22-.08.05 0 .12.06.16.12.14.22.28.45.4.69.28.55-.09 1.18-.71 1.2h-.7Z"/>
</svg>
