<svg xmlns="http://www.w3.org/2000/svg" data-name="Calque 12" viewBox="0 0 14.62 15.7">
  <path d="M13.1 14.35c-.09.77-.49 1.23-1.17 1.34-.1.02-.2.02-.3.02H3c-.87 0-1.39-.46-1.49-1.35H.86c-.52 0-.86-.34-.86-.86v-2.66c0-.59.23-1.08.69-1.46.09-.08.12-.15.12-.27.02-1.09.01-2.18.07-3.26.09-1.65.38-3.27.81-4.86.17-.59.7-.99 1.3-.99h1.1c.47 0 .79.3.85.77.04.34.08.67.13 1.02.3-.05.58-.11.89-.16-.04-.53.09-1.02.55-1.36.26-.2.56-.29.88-.27.41.03.74.21 1 .54.25.32.3.7.27 1.09.3.06.58.11.89.16.04-.33.09-.66.13-.99.05-.51.37-.8.9-.8h1.05c.62 0 1.14.4 1.3 1 .36 1.35.61 2.71.75 4.1.14 1.33.14 2.67.13 4 0 .12.03.19.12.27.46.38.69.87.69 1.46v2.66c0 .52-.34.85-.86.86h-.65ZM8.39 7.58h3.17c.42 0 .75-.36.76-.78 0-.32 0-.64-.03-.96-.17-2.04-1.9-3.64-3.94-3.66-.69 0-1.38-.03-2.06 0-1.7.08-2.92.89-3.64 2.43-.31.65-.35 1.36-.35 2.07 0 .57.32.91.89.91h3.04v-.23c0-.36.23-.58.58-.58h1.01c.34 0 .56.23.57.56v.25Zm-6.12.24c0 .1-.01.15-.01.2-.05 1.72-.1 3.45-.16 5.17-.01.39-.03.78-.03 1.17 0 .37.27.7.57.73v-.03c.02-.94.05-1.87.07-2.81.01-.56.34-.88.89-.88h7.41c.57 0 .89.32.9.89.01.67.03 1.34.04 2.01v.84c.07-.02.1-.02.13-.04.31-.16.47-.41.46-.76-.02-.76-.04-1.51-.07-2.27l-.12-4.02c0-.06 0-.11-.02-.2-.33.26-.69.3-1.06.3H8.38v.77c0 .36-.22.58-.58.58h-.95c-.44 0-.64-.2-.64-.64v-.71H3.48c-.43 0-.85 0-1.23-.3Zm9.16 7.34v-.08c-.02-.96-.04-1.92-.07-2.87 0-.2-.12-.29-.34-.29H3.58c-.24 0-.33.09-.34.32-.02.91-.04 1.83-.07 2.74v.18h8.24ZM1.67 9.51c-.55.08-1 .51-1.09 1.03-.04.23-.03.47-.04.71v2.23c0 .19.09.31.25.32h.74c.04-1.44.09-2.86.13-4.29Zm11.41 4.3h.62c.29 0 .37-.08.37-.37v-2.55c0-.12-.01-.24-.04-.35-.11-.52-.61-.99-1.09-1.01.04 1.42.09 2.85.13 4.29ZM2.27 1.09c-.75 2.59-.99 5.23-.9 7.91.39-.07.31.01.33-.34.03-.86.05-1.72.08-2.59.03-.78.23-1.51.64-2.18.12-.2.18-.39.14-.63-.11-.72-.19-1.45-.28-2.18Zm10.08 0-.3 2.4c0 .06 0 .13.03.18.58.88.79 1.85.78 2.89 0 .75.04 1.51.06 2.26 0 .11.04.15.14.16.06 0 .12.02.18.03.09-2.69-.15-5.33-.9-7.91ZM3.06 3.03c.41-.41.85-.73 1.35-.96.12-.05.15-.11.13-.23-.05-.33-.09-.67-.13-1.01-.03-.2-.12-.29-.32-.29-.26 0-.53.01-.79 0-.42-.02-.55.07-.48.53.1.64.17 1.28.25 1.96Zm8.5 0c.09-.75.19-1.46.27-2.18.02-.18-.1-.3-.28-.3H10.5c-.16 0-.26.09-.28.24-.05.37-.1.74-.14 1.11 0 .05.03.12.07.14.52.24.97.56 1.4.99ZM7.84 7.32H6.78v1.6h1.06v-1.6Zm.27-5.7c.04-.38-.02-.72-.36-.94-.28-.19-.59-.19-.87 0-.35.22-.42.56-.37.95h1.6Z"/>
  <path d="M10.61 3.7c-.08.09-.12.2-.2.22-.09.03-.21.01-.29-.03-.21-.11-.41-.26-.62-.37-.38-.19-.79-.27-1.21-.27H6.4c-.68 0-1.3.2-1.84.61-.01.01-.03.02-.04.03-.15.1-.31.09-.4-.04-.09-.12-.06-.28.07-.39.44-.35.94-.58 1.49-.68.24-.04.49-.06.74-.07.64 0 1.28-.01 1.93 0 .77.01 1.46.26 2.06.73.08.06.13.16.21.26ZM5.7 13c-.06.45-.12.55-.3.54-.18 0-.23-.11-.27-.54h-.48c-.2 0-.32-.11-.32-.27 0-.16.12-.27.32-.27h5.31c.2 0 .32.1.33.26 0 .17-.12.28-.33.28H5.7Z"/>
</svg>
