<svg xmlns="http://www.w3.org/2000/svg" data-name="Calque 3" viewBox="0 0 12.39 15.86">
  <path d="M.15 15.86c-.14-.1-.16-.23-.15-.39.12-1.1.23-2.21.33-3.31.09-1.06.77-1.85 1.81-2.09.54-.12 1.07-.25 1.61-.38.05-.01.11-.06.12-.1.07-.33.24-.58.53-.77-.41-.32-.72-.7-.93-1.16-.21-.46-.28-.94-.26-1.46-.56.04-1-.13-1.19-.69-.14-.4-.02-.75.39-1.14-.19-.04-.37-.08-.55-.12-.06-.01-.11-.02-.17-.03-.12-.02-.2-.09-.22-.21-.02-.12.04-.21.14-.27.32-.19.64-.39.97-.58.09-.05.13-.11.13-.22V1.59C2.71.41 3.86-.33 4.94.14c.23.1.46.21.69.32.37.17.74.17 1.11 0 .23-.11.46-.21.69-.32 1.06-.47 2.22.27 2.23 1.43v1.36c0 .11.04.16.13.22.32.18.63.38.94.56.11.07.19.15.17.29-.02.14-.12.19-.25.22-.22.04-.44.09-.69.14.41.34.57.75.35 1.24-.21.49-.63.63-1.15.59.04 1.08-.34 1.95-1.18 2.62.04.03.08.05.11.09.12.16.3.31.35.5.06.24.19.31.4.35.49.1.98.22 1.46.34 1.02.26 1.65 1.03 1.75 2.07.1 1.1.22 2.21.33 3.31.02.16 0 .29-.15.39H.15Zm11.71-.5v-.11c-.1-1.04-.21-2.08-.31-3.13-.04-.37-.17-.7-.41-.98-.29-.35-.68-.52-1.12-.61-.52-.11-1.04-.24-1.56-.37-.29.57-.89.79-1.31 1.22.05.04.09.06.14.09 1.04.76 1.58 1.78 1.63 3.07 0 .24-.09.33-.32.33H7.27c-.24 0-.32-.08-.33-.32-.02-.76-.23-1.45-.64-2.09-.03-.05-.06-.09-.1-.14-.02.03-.04.04-.04.05-.02.03-.05.07-.07.1-.41.64-.62 1.33-.63 2.09 0 .22-.09.31-.31.31H3.79c-.22 0-.31-.09-.31-.31.02-1.01.37-1.88 1.08-2.61.21-.21.45-.39.68-.6-.06-.05-.14-.1-.21-.16-.38-.33-.86-.54-1.09-1.03-.6.14-1.2.27-1.78.43-.73.2-1.19.69-1.28 1.44-.12.88-.19 1.78-.28 2.66l-.06.66H2v-2.18c0-.2.13-.33.29-.29.15.04.2.14.2.29v2.17h7.44v-2.23c.01-.14.11-.23.24-.24.13 0 .23.09.25.23v2.25h1.45ZM3.73 4.56s-.01.07-.01.1v1.89c0 .12.02.25.04.37.26 1.26 1.41 2.13 2.65 2 1.31-.14 2.26-1.18 2.26-2.49V4.57c-1.66.2-3.3.2-4.95 0Zm5.44-1.6V1.59C9.17.76 8.38.26 7.62.6l-.66.3c-.51.24-1.03.23-1.54 0-.25-.12-.49-.24-.75-.34-.66-.26-1.4.2-1.44.91-.03.49 0 .98 0 1.47 0 0 .01.02.02.02h5.93Zm-6.72.88c2.5.49 4.99.49 7.53 0-.16-.1-.29-.17-.41-.25-.14-.1-.29-.13-.46-.13-1.93 0-3.86.01-5.79 0-.36 0-.58.23-.86.38Zm3.33 8.19c-.09-.09-.16-.17-.25-.26-.94.62-1.46 1.47-1.56 2.59h.99c.06-.86.33-1.63.82-2.33Zm.83 0c.49.7.76 1.48.82 2.33h.99c-.11-1.12-.63-1.98-1.57-2.59-.08.09-.16.17-.24.26Zm-.03-1.28c.09.08.16.15.25.23.34-.27.7-.52 1.02-.8.31-.27.2-.81-.18-.96-.04-.02-.13 0-.15.03-.32.49-.63.99-.94 1.5Zm-.77 0c-.31-.5-.62-1-.94-1.5-.02-.03-.11-.04-.15-.03-.37.15-.49.67-.19.94.33.29.69.55 1.04.82.09-.08.16-.15.25-.23Zm.38-.31c.23-.37.45-.72.66-1.05H5.54c.21.33.42.68.66 1.05ZM3.21 4.71c-.28-.03-.53-.01-.68.26-.1.19-.08.37.05.54.16.21.39.21.63.18v-.97Zm5.97.98c.27.03.52.02.67-.24.11-.18.1-.37-.02-.54-.16-.23-.39-.23-.64-.2v.97ZM6.44 11.4c0-.13-.11-.24-.24-.25-.14 0-.25.12-.25.25s.12.24.25.24.24-.11.24-.25Z"/>
</svg>
