<svg aria-labelledby="title" baseProfile="tiny-ps" class="plone-icon" height="120" version="1.2" viewBox="0 0 120 120" width="120" xmlns="http://www.w3.org/2000/svg">
<path d="M109.94 37.12C109.49 46.91 102.69 60.32 89.55 77.34C75.95 95.11 64.45 104 55.04 104C49.22 104 44.29 98.59 40.26 87.76C37.57 77.84 34.88 67.91 32.19 57.99C29.2 47.17 25.99 41.75 22.56 41.75C21.81 41.75 19.19 43.34 14.71 46.49L10.01 40.39C14.94 36.03 19.81 31.67 24.6 27.3C31.18 21.58 36.12 18.57 39.41 18.27C47.19 17.52 51.98 22.87 53.78 34.32C55.72 46.68 57.06 54.37 57.82 57.38C60.06 67.63 62.53 72.75 65.23 72.75C67.32 72.75 70.46 69.43 74.65 62.77C78.84 56.12 81.08 51.06 81.39 47.59C81.98 41.84 79.74 38.97 74.65 38.97C72.26 38.97 69.79 39.52 67.25 40.62C72.17 24.42 81.56 16.56 95.41 17.01C105.68 17.31 110.53 24.01 109.94 37.12Z"></path>
</svg>