<svg version="1.2" baseProfile="tiny-ps" xmlns="http://www.w3.org/2000/svg" viewBox="0 0 1650 765" width="1650" height="765">
	<title>yt_logo_mono_light-ai</title>
	<style>
		tspan { white-space:pre }
		.shp0 { fill: #ffffff } 
		.shp1 { fill: #282828 } 
	</style>
	<g id="Layer 1">
		<path id="&lt;Compound Path&gt;" fill-rule="evenodd" class="shp0" d="M618.1 382.32C618.1 421.86 615.56 451.1 610.49 470.04C606.3 485.73 593.95 498.07 578.27 502.27C559.32 507.34 511.85 509.88 435.88 509.88C359.9 509.88 312.43 507.34 293.49 502.27C277.81 498.07 265.46 485.73 261.26 470.04C256.19 451.1 253.65 421.86 253.65 382.32C253.65 342.79 256.19 313.55 261.26 294.6C265.46 278.92 277.81 266.57 293.49 262.38C312.43 257.3 359.9 254.76 435.88 254.76C511.85 254.76 559.32 257.3 578.27 262.38C593.95 266.57 606.3 278.92 610.49 294.6C615.56 313.55 618.1 342.79 618.1 382.32ZM494.11 382.32L399.43 327.65L399.43 436.99L494.11 382.32Z" />
		<path id="&lt;Compound Path&gt;" class="shp0" d="M695.48 419.21L653.26 272.99L689.23 272.99L705.39 347.27L707.99 359.26C709.56 365.52 710.95 371.69 712.16 377.77L713.47 377.77L720.5 347.01L737.97 272.99L773.41 272.99L731.71 419.21L731.71 491.92L695.48 491.92L695.48 419.21Z" />
		<path id="&lt;Compound Path&gt;" fill-rule="evenodd" class="shp0" d="M782.67 486.97C775.46 482.11 770.33 474.55 767.29 464.3C764.25 454.05 762.73 440.41 762.73 423.38L762.73 400.18C762.73 382.98 764.46 369.17 767.94 358.74C771.42 348.31 776.84 340.72 784.23 335.93C791.62 331.16 801.3 328.77 813.29 328.77C825.11 328.77 834.57 331.2 841.7 336.07C848.82 340.93 854.04 348.53 857.34 358.87C860.64 369.21 862.29 382.98 862.29 400.18L862.29 423.38C862.29 440.41 860.68 454.09 857.47 464.43C854.25 474.77 849.04 482.33 841.83 487.1C834.62 491.88 824.85 494.27 812.51 494.27C799.83 494.27 789.88 491.83 782.67 486.97ZM823.07 461.95C825.06 456.74 826.06 448.23 826.06 436.41L826.06 386.63C826.06 375.16 825.06 366.78 823.07 361.48C821.07 356.18 817.55 353.53 812.51 353.53C807.64 353.53 804.21 356.18 802.22 361.48C800.22 366.78 799.22 375.16 799.22 386.63L799.22 436.41C799.22 448.23 800.17 456.74 802.08 461.95C804 467.16 807.47 469.77 812.51 469.77C817.55 469.77 821.07 467.16 823.07 461.95Z" />
		<path id="&lt;Compound Path&gt;" class="shp0" d="M977.75 332.05L977.75 491.82L949.6 491.82L946.47 472.27L945.69 472.27C938.39 487.04 927.27 494.42 912.33 494.42C901.55 494.42 893.6 490.99 888.48 484.13C883.35 477.26 880.79 466.36 880.79 451.42L880.79 332.05L916.76 332.05L916.76 449.33C916.76 456.28 917.54 461.32 919.1 464.45C920.67 467.58 923.28 469.14 926.92 469.14C930.05 469.14 932.96 468.14 935.66 466.14C938.35 464.15 940.39 461.5 941.78 458.19L941.78 332.05L977.75 332.05Z" />
		<path id="&lt;Compound Path&gt;" class="shp0" d="M1075.74 302.33L1040.82 302.33L1040.82 491.82L1004.33 491.82L1004.33 302.33L969.41 302.33L969.41 273.14L1075.74 273.14L1075.74 302.33Z" />
		<path id="&lt;Compound Path&gt;" class="shp0" d="M1163.25 332.05L1163.25 491.82L1135.1 491.82L1131.98 472.27L1131.2 472.27C1123.9 487.04 1112.78 494.42 1097.83 494.42C1087.06 494.42 1079.11 490.99 1073.99 484.13C1068.86 477.26 1066.3 466.36 1066.3 451.42L1066.3 332.05L1102.26 332.05L1102.26 449.33C1102.26 456.28 1103.05 461.32 1104.61 464.45C1106.18 467.58 1108.78 469.14 1112.43 469.14C1115.56 469.14 1118.46 468.14 1121.16 466.14C1123.85 464.15 1125.89 461.5 1127.28 458.19L1127.28 332.05L1163.25 332.05Z" />
		<path id="&lt;Compound Path&gt;" fill-rule="evenodd" class="shp0" d="M1335.79 424.05L1335.79 432.13C1335.79 442.38 1336.09 450.07 1336.7 455.2C1337.31 460.32 1338.56 464.06 1340.48 466.4C1342.39 468.75 1345.34 469.92 1349.34 469.92C1354.72 469.92 1358.42 467.84 1360.42 463.67C1362.41 459.5 1363.5 452.55 1363.67 442.82L1394.69 444.64C1394.86 446.03 1394.95 447.94 1394.95 450.37C1394.95 465.15 1390.91 476.18 1382.83 483.47C1374.75 490.77 1363.33 494.42 1348.56 494.42C1330.84 494.42 1318.41 488.86 1311.29 477.74C1304.16 466.62 1300.6 449.42 1300.6 426.14L1300.6 398.25C1300.6 374.27 1304.29 356.77 1311.68 345.73C1319.06 334.7 1331.7 329.18 1349.6 329.18C1361.94 329.18 1371.4 331.44 1378.01 335.96C1384.61 340.48 1389.26 347.51 1391.95 357.07C1394.65 366.62 1395.99 379.83 1395.99 396.68L1395.99 424.05L1335.79 424.05ZM1340.35 356.81C1338.52 359.07 1337.31 362.76 1336.7 367.88C1336.09 373.01 1335.79 380.78 1335.79 391.21L1335.79 402.68L1362.11 402.68L1362.11 391.21C1362.11 380.96 1361.76 373.19 1361.07 367.88C1360.37 362.59 1359.12 358.85 1357.29 356.68C1355.46 354.51 1352.64 353.42 1348.82 353.42C1344.99 353.42 1342.17 354.55 1340.35 356.81Z" />
		<path id="&lt;Compound Path&gt;" fill-rule="evenodd" class="shp0" d="M1285.49 399.55L1285.49 424.83C1285.49 448.64 1282.62 466.14 1276.89 477.35C1271.15 488.56 1262.2 494.16 1250.04 494.16C1243.27 494.16 1237.09 492.6 1231.54 489.47C1225.97 486.34 1221.8 482.09 1219.02 476.7L1218.24 476.7L1214.59 491.82L1185.67 491.82L1185.67 265.06L1219.55 265.06L1219.54 349.25L1219.81 349.25C1222.94 343.17 1227.37 338.26 1233.1 334.52C1238.83 330.79 1245 328.92 1251.61 328.92C1260.12 328.92 1266.81 331.18 1271.67 335.7C1276.54 340.22 1280.05 347.51 1282.23 357.59C1284.4 367.67 1285.49 381.66 1285.49 399.55ZM1249.26 402.16C1249.26 389.65 1248.87 380 1248.09 373.23C1247.3 366.45 1245.91 361.63 1243.92 358.76C1241.92 355.89 1239.09 354.46 1235.45 354.46C1231.97 354.46 1228.76 355.85 1225.8 358.63C1222.85 361.41 1220.76 364.98 1219.55 369.32L1219.55 460.02C1221.11 462.8 1223.15 464.88 1225.67 466.27C1228.19 467.67 1230.92 468.36 1233.88 468.36C1237.7 468.36 1240.74 466.97 1243.01 464.19C1245.26 461.41 1246.87 456.72 1247.83 450.11C1248.78 443.51 1249.26 434.39 1249.26 422.75L1249.26 402.16Z" />
		<g id="&lt;Group&gt;">
			<g id="&lt;Group&gt;">
				<path id="&lt;Compound Path&gt;" fill-rule="evenodd" class="shp1" d="M782.66 486.85C775.44 481.99 770.32 474.43 767.28 464.18C764.24 453.93 762.72 440.29 762.72 423.26L762.72 400.07C762.72 382.86 764.45 369.05 767.93 358.63C771.4 348.2 776.83 340.6 784.22 335.82C791.6 331.04 801.29 328.65 813.28 328.65C825.09 328.65 834.56 331.09 841.69 335.95C848.81 340.82 854.02 348.42 857.33 358.76C860.62 369.1 862.28 382.86 862.28 400.07L862.28 423.26C862.28 440.29 860.67 453.98 857.46 464.31C854.24 474.65 849.03 482.21 841.82 486.99C834.61 491.76 824.83 494.15 812.5 494.15C799.81 494.15 789.86 491.72 782.66 486.85ZM823.05 461.83C825.05 456.62 826.05 448.11 826.05 436.29L826.05 386.51C826.05 375.04 825.05 366.66 823.05 361.36C821.05 356.06 817.53 353.41 812.5 353.41C807.63 353.41 804.2 356.06 802.2 361.36C800.2 366.66 799.21 375.04 799.21 386.51L799.21 436.29C799.21 448.11 800.16 456.62 802.07 461.83C803.98 467.05 807.46 469.65 812.5 469.65C817.53 469.65 821.05 467.05 823.05 461.83Z" />
				<path id="&lt;Compound Path&gt;" fill-rule="evenodd" class="shp1" d="M1336.22 423.64L1336.22 431.72C1336.22 441.97 1336.52 449.66 1337.13 454.79C1337.74 459.91 1338.99 463.65 1340.91 465.99C1342.82 468.34 1345.77 469.51 1349.77 469.51C1355.15 469.51 1358.85 467.43 1360.85 463.26C1362.84 459.09 1363.93 452.14 1364.1 442.41L1395.12 444.23C1395.29 445.62 1395.38 447.53 1395.38 449.97C1395.38 464.74 1391.34 475.77 1383.26 483.07C1375.18 490.36 1363.76 494.01 1348.99 494.01C1331.27 494.01 1318.84 488.45 1311.72 477.33C1304.59 466.21 1301.03 449.01 1301.03 425.73L1301.03 397.84C1301.03 373.86 1304.72 356.36 1312.11 345.32C1319.49 334.29 1332.13 328.77 1350.03 328.77C1362.37 328.77 1371.83 331.03 1378.44 335.55C1385.04 340.07 1389.69 347.1 1392.38 356.66C1395.08 366.22 1396.42 379.42 1396.42 396.27L1396.42 423.64L1336.22 423.64ZM1340.78 356.4C1338.96 358.66 1337.74 362.35 1337.13 367.47C1336.52 372.6 1336.22 380.38 1336.22 390.8L1336.22 402.27L1362.54 402.27L1362.54 390.8C1362.54 380.55 1362.19 372.78 1361.5 367.47C1360.8 362.18 1359.55 358.44 1357.72 356.27C1355.89 354.1 1353.07 353.01 1349.25 353.01C1345.42 353.01 1342.6 354.14 1340.78 356.4Z" />
				<path id="&lt;Compound Path&gt;" class="shp1" d="M695.07 420.65L654.15 272.87L689.86 272.87L704.19 339.85C707.84 356.36 710.54 370.44 712.27 382.08L713.32 382.08C714.53 373.74 717.23 359.75 721.4 340.11L736.25 272.87L771.96 272.87L730.52 420.65L730.52 491.55L695.07 491.55L695.07 420.65Z" />
				<path id="&lt;Compound Path&gt;" class="shp1" d="M978.41 331.78L978.41 491.54L950.26 491.54L947.13 472L946.35 472C938.7 486.77 927.23 494.15 911.95 494.15C901.35 494.15 893.53 490.68 888.49 483.73C883.45 476.78 880.93 465.92 880.93 451.15L880.93 331.78L916.9 331.78L916.9 449.06C916.9 456.19 917.68 461.27 919.24 464.31C920.81 467.35 923.41 468.87 927.06 468.87C930.19 468.87 933.19 467.92 936.05 466C938.92 464.09 941.05 461.66 942.44 458.71L942.44 331.78L978.41 331.78Z" />
				<path id="&lt;Compound Path&gt;" class="shp1" d="M1162.9 331.78L1162.9 491.54L1134.75 491.54L1131.62 472L1130.84 472C1123.19 486.77 1111.72 494.15 1096.43 494.15C1085.83 494.15 1078.01 490.68 1072.98 483.73C1067.94 476.78 1065.42 465.92 1065.42 451.15L1065.42 331.78L1101.39 331.78L1101.39 449.06C1101.39 456.19 1102.17 461.27 1103.73 464.31C1105.3 467.35 1107.9 468.87 1111.55 468.87C1114.68 468.87 1117.68 467.92 1120.54 466C1123.41 464.09 1125.54 461.66 1126.93 458.71L1126.93 331.78L1162.9 331.78Z" />
				<path id="&lt;Compound Path&gt;" class="shp1" d="M1076.14 301.81L1040.44 301.81L1040.44 491.54L1005.25 491.54L1005.25 301.81L969.54 301.81L969.54 272.88L1076.14 272.88L1076.14 301.81Z" />
				<path id="&lt;Compound Path&gt;" fill-rule="evenodd" class="shp1" d="M1285.19 399.28L1285.19 424.56C1285.19 448.37 1282.32 465.87 1276.59 477.08C1270.85 488.29 1261.9 493.89 1249.74 493.89C1242.97 493.89 1236.8 492.33 1231.24 489.2C1225.68 486.07 1221.51 481.81 1218.73 476.43L1217.95 476.43L1214.3 491.54L1184.59 491.54L1184.59 264.79L1219.25 264.79L1219.25 348.98L1219.51 348.98C1222.64 342.9 1227.07 337.99 1232.8 334.25C1238.54 330.52 1244.7 328.65 1251.31 328.65C1259.82 328.65 1266.51 330.91 1271.38 335.43C1276.24 339.95 1279.76 347.24 1281.93 357.32C1284.1 367.4 1285.19 381.39 1285.19 399.28ZM1248.96 401.9C1248.96 389.39 1248.57 379.74 1247.79 372.97C1247.01 366.19 1245.61 361.37 1243.62 358.5C1241.62 355.64 1238.8 354.2 1235.15 354.2C1231.67 354.2 1228.46 355.59 1225.51 358.37C1222.55 361.15 1220.46 364.72 1219.25 369.06L1219.25 459.76C1220.81 462.54 1222.85 464.62 1225.38 466.01C1227.89 467.4 1230.63 468.1 1233.59 468.1C1237.4 468.1 1240.45 466.71 1242.71 463.93C1244.96 461.15 1246.57 456.46 1247.53 449.85C1248.48 443.25 1248.96 434.13 1248.96 422.49L1248.96 401.9Z" />
			</g>
		</g>
		<g id="&lt;Group&gt;">
			<path id="&lt;Compound Path&gt;" class="shp1" d="M618.1 382.32C618.1 421.86 615.56 451.1 610.49 470.04C606.3 485.73 593.95 498.07 578.27 502.27C559.32 507.34 511.85 509.88 435.88 509.88C359.9 509.88 312.43 507.34 293.49 502.27C277.81 498.07 265.46 485.73 261.26 470.04C256.19 451.1 253.65 421.86 253.65 382.32C253.65 342.79 256.19 313.55 261.26 294.6C265.46 278.92 277.81 266.57 293.49 262.38C312.43 257.3 359.9 254.76 435.88 254.76C511.85 254.76 559.32 257.3 578.27 262.38C593.95 266.57 606.3 278.92 610.49 294.6C615.56 313.55 618.1 342.79 618.1 382.32Z" />
			<path id="&lt;Path&gt;" class="shp0" d="M399.43 436.99L399.43 327.65L494.11 382.32L399.43 436.99Z" />
		</g>
	</g>
</svg>