<svg aria-labelledby="title" viewBox="0 0 2048 2048" xmlns="http://www.w3.org/2000/svg"><g><path d="M1184,2035.56v-715.56h238.6l45.4-296h-284v-192.09c0-80.98,39.67-159.91,166.87-159.91h129.13v-252c-78.12-13.33-154.53-20-229.22-20-233.9,0-386.78,141.76-386.78,398.4v225.6h-260v296h260v715.56C374.46,1958.74,0,1535.11,0,1024,0,458.46,458.46,0,1024,0s1024,458.46,1024,1024c0,511.11-374.46,934.74-864,1011.56Z"></path><path d="M1184,1320v715.56c-52.13,8.18-105.57,12.44-160,12.44s-107.87-4.26-160-12.44v-715.56h-260v-296h260v-225.6c0-256.64,152.88-398.4,386.78-398.4,74.69,0,151.1,6.67,229.22,20v252h-129.13c-127.2,0-166.87,78.93-166.87,159.91v192.09h284l-45.4,296h-238.6Z" style="fill:#fff;"></path></g><title></title></svg>