<svg xmlns="http://www.w3.org/2000/svg" data-name="Calque 2" viewBox="0 0 756.99 533.33"><path d="M741.17 83.28c-8.71-32.78-34.35-58.6-66.93-67.36C615.21 0 378.49 0 378.49 0S141.77 0 82.74 15.92C50.17 24.68 24.52 50.5 15.82 83.28 0 142.7 0 266.67 0 266.67s0 123.97 15.82 183.39c8.7 32.78 34.35 58.59 66.93 67.36 59.03 15.92 295.75 15.92 295.75 15.92s236.72 0 295.75-15.92c32.57-8.76 58.22-34.58 66.93-67.35C757 390.64 757 266.68 757 266.68s0-123.97-15.82-183.39Zm-440.1 295.94V154.11l197.85 112.56-197.85 112.55Z" data-name="Calque 1"/></svg>