<svg xmlns="http://www.w3.org/2000/svg" width="218" height="136" fill="none"><path fill="#E6007E" d="M175.975 3.76998c.97-.22 1.37.51 1.89 1.15 2.59 9.69002 5.68 20.26002 13.32 27.19002 6.03 5.48 14.44 8.35 22.19 10.57 1.35.39 5.08.64 4.03 2.99-.5 1.1-2.79 1.27-3.81 1.57-7.52 2.2-15.69 4.92-21.64 9.99-7.45 6.31-10.98 16.37-13.52 25.53-.17.66-.25 1.69-.5 2.25-.05.1-.75.95-.82 1-.92.61-1.92 0-2.29-.93-.2-.49-.45-1.37-.6-1.91-3.51-12.56-7.27-23.25-19.3-29.93-5.78-3.21-11.8-4.48-18.05-6.46-1.22-.39-2.42-1.35-1.47-2.62.77-1.05 2.89-1.13 4.03-1.47 8.76-2.64 17.76-5.68 24.1-12.68 5.35-5.9 8.17-14.15 10.36-21.68002.32-1.15.72-4.26 2.09-4.55h-.02l.01-.01Z"/><path fill="#7D1751" d="M40.0052 90.66c-1.58-4.52-2.66-9.24-3.23-14.18-10.92 5.63-21.69 11.96-31.99004 19.06.94-.46 1.99-.75 3.1-.82.19-.01 12.72004-.87 32.13004-4.06h-.01ZM.105321 103.57c-.1299997-1.95.43-3.79 1.469999-5.28-2.039999 2.76-2.159999 6.61 0 9.56.39.53.83.99 1.31 1.4-1.58-1.41-2.629999-3.41-2.769999-5.68h-.01Zm3.259449 6.08c-.08-.06-.16-.12-.23-.19.08.06.15.13.23.19Z"/><path fill="#282828" d="M70.6359 33.55c9.24-9.55 20.78-14.46 34.1301-14.46 12.57 0 23.31 4.35 32.45 12.83 6.41-2.07 12.73-4.64 17.81-9.09-.9-1-1.82-1.99-2.78-2.96C138.906 6.71 122.996 0 104.256 0 85.5159 0 69.6059 6.45 56.2659 19.87c-13.34 13.16-20.01 29.17-20.01 48 0 2.94.18 5.81.51 8.61 6.56-3.38 13.18-6.5 19.77-9.4.18-13.07 4.8-24.18 14.1-33.54v.01Zm81.8501 41.9399c-1.45 10.24-5.93 19.27-13.58 26.9701-9.49 9.55-20.78 14.46-34.13 14.46-13.3501 0-24.6401-4.9-34.1301-14.46-.19-.2-.37-.41-.56-.61-7.93 1.75-15.34 3.19-22.08 4.37 2.4 3.45 5.14 6.76 8.28 9.91 13.34 13.16 29.25 19.87 47.9901 19.87 18.74 0 34.65-6.45 47.99-19.87 7.04-7.08 12.2-14.89 15.53-23.4401-2.16-7.57-4.53-14.42-8.9-20.06-2.13.98-4.26 1.93-6.39 2.86h-.02ZM47.9551 89.2902c3.88-.7 7.98-1.49 12.25-2.38-.41-.97-.79-1.95-1.13-2.94-3.71 1.69-7.42 3.47-11.12 5.32Z"/><path fill="#282828" d="M47.9556 89.2901c3.7-1.85 7.41-3.63 11.12-5.32-1.71-5.02-2.56-10.37-2.56-16.1 0-.26.01-.52.02-.79-6.59 2.89-13.2 6.02-19.77 9.4.57 4.94 1.65 9.66 3.23 14.18 2.54-.42 5.19-.87 7.95-1.37h.01Z"/><path fill="#E6007E" d="M3.47617 96.44c.43-.3.87-.6 1.31-.9-1.3.63-2.4 1.58-3.21 2.75.51-.7 1.15-1.33 1.9-1.86v.01ZM3.135 109.47c-.09-.07-.17-.14-.26-.21.08.07.17.14.26.21Zm10.0905.32c-3.02 2.12-7.02003 1.95-9.87003-.14 1.54 1.18 3.5 1.83 5.59 1.7.85-.06 15.99003-1.08 39.04003-5.13-2.92-4.21-5.32-8.6198-7.15-13.2698-9.45 5.04-18.73 10.6298-27.62 16.8398h.01ZM152.975 66.7702c-1.26-.95-2.63-1.85-4.13-2.68-1.92-1.07-3.87-1.91-5.84-2.64-25.38 10.82-50.2499 18.01-70.0099 22.65-4.41 1.04-8.68 1.97-12.79 2.82 2.24 5.35 5.53 10.31 9.87 14.9298 2.1-.46 4.22-.94 6.39-1.45 12.21-2.8498 26.2899-6.6498 41.2699-11.6198 11.22-3.74 22.94-8.14 34.75-13.29.35-2.47.53-5.01.53-7.61 0-.37-.03-.74-.03-1.11h-.01Z"/><path fill="#E6007E" d="M13.225 109.79c8.88-6.21 18.17-11.7999 27.62-16.8399-.3-.76-.58-1.5199-.85-2.2899-19.41 3.19-31.94005 4.05-32.13005 4.06-1.11.07-2.14999.36-3.09999.82-.43.3-.87.59-1.31.9-.76.53-1.39 1.16-1.9 1.86C.514955 99.7902-.0450447 101.63.0849553 103.58c.1499997 2.28 1.1900047 4.28 2.7700047 5.68.08.07.17.14.26.21.08.06.15.13.23.19 2.84 2.09 6.84004 2.25 9.87004.14l.01-.01Zm46.9807-22.8798c-4.27.88-8.36 1.67-12.25 2.38-2.38 1.19-4.75 2.3999-7.11 3.6599 1.83 4.65 4.22 9.0599 7.15 13.2699 6.74-1.18 14.15-2.62 22.08-4.37-4.35-4.6198-7.63-9.5798-9.87-14.9298v-.01ZM152.975 66.77c0 .37.03.73.03 1.11 0 2.61-.18 5.14-.53 7.61 2.13-.93 4.26-1.88 6.39-2.86-1.65-2.13-3.57-4.1-5.9-5.86h.01Z"/><path fill="#E6007E" d="M40.8459 92.95c2.36-1.26 4.73-2.47 7.11-3.66-2.76.5-5.42.96-7.95 1.37.27.77.55 1.53.85 2.29h-.01Z"/></svg>